HIERARCHY
ROOT Hips
{
  OFFSET 0 0 0
  CHANNELS 6 Xposition Yposition Zposition Zrotation Yrotation Xrotation
  JOINT LeftThigh
  {
    OFFSET 8.409438 0 -5.917753
    CHANNELS 3 Zrotation Yrotation Xrotation
    JOINT LeftLeg
    {
      OFFSET 0 0 -42.358652
      CHANNELS 3 Zrotation Yrotation Xrotation
      JOINT LeftFoot
      {
        OFFSET 0 0 -39.357303
        CHANNELS 3 Zrotation Yrotation Xrotation
      }
    }
  }
  JOINT RightThigh
  {
    OFFSET -8.409438 0 -5.917753
    CHANNELS 3 Zrotation Yrotation Xrotation
    JOINT RightLeg
    {
      OFFSET 0 0 -42.358652
      CHANNELS 3 Zrotation Yrotation Xrotation
      JOINT RightFoot
      {
        OFFSET 0 0 -39.357303
        CHANNELS 3 Zrotation Yrotation Xrotation
      }
    }
  }
  JOINT SpineLow
  {
    OFFSET 0 0 4.719101
    CHANNELS 3 Zrotation Yrotation Xrotation
    JOINT SpineMid
    {
      OFFSET 0 0 12.899191
      CHANNELS 3 Zrotation Yrotation Xrotation
      JOINT Chest
      {
        OFFSET 0 0 12.899191
        CHANNELS 3 Zrotation Yrotation Xrotation
        JOINT LeftShoulder
        {
          OFFSET 7.550562 1.41573 9.438202
          CHANNELS 3 Zrotation Yrotation Xrotation
          JOINT LeftArm
          {
            OFFSET 9.155056 0 4.247191
            CHANNELS 3 Zrotation Yrotation Xrotation
            JOINT LeftForearm
            {
              OFFSET 0 0 25.771955
              CHANNELS 3 Zrotation Yrotation Xrotation
              JOINT LeftHand
              {
                OFFSET 0 0 25.197169
                CHANNELS 3 Zrotation Yrotation Xrotation
              }
            }
          }
        }
        JOINT RightShoulder
        {
          OFFSET -7.550562 1.41573 9.438202
          CHANNELS 3 Zrotation Yrotation Xrotation
          JOINT RightArm
          {
            OFFSET -9.155056 0 4.247191
            CHANNELS 3 Zrotation Yrotation Xrotation
            JOINT RightForearm
            {
              OFFSET 0 0 -25.771955
              CHANNELS 3 Zrotation Yrotation Xrotation
              JOINT RightHand
              {
                OFFSET 0 0 -25.197169
                CHANNELS 3 Zrotation Yrotation Xrotation
              }
            }
          }
        }
        JOINT Neck
        {
          OFFSET 0 0 15.101124
          CHANNELS 3 Zrotation Yrotation Xrotation
          JOINT Head
          {
            OFFSET 0 0 11.325843
            CHANNELS 3 Zrotation Yrotation Xrotation
            End Site
            {
              OFFSET 0 0 14.157303
            }
          }
        }
      }
    }
  }
}
MOTION
Frames: 13
Frame Time: 0.0
0.0  89.887642  0.0  0.220129  -16.469152  -96.222477  17.061726  -15.997618  1.540633  0.681654  4.7231  25.240866  4.978352  2.15947  2.507875  -2.941201  8.134306  -5.801376  -1.381516  4.702703  16.646247  2.822406  0.733621  -0.259677  1.311277  0.017135  0.926746  3.584296  -0.003417  2.533241  3.584296  -0.003417  2.533241  -6.208213  19.336363  3.323521  140.882374  37.568683  -172.385911  -6.848062  -3.645436  35.356564  89.119289  -7.437171  2.454068  -5.383246  1.255954  20.685261  57.359441  27.540531  21.190833  13.532519  8.264951  -54.043794  101.972792  1.713052  -26.255601  -9.537489  -0.39104  -0.902332  -7.153684  -0.279278  -0.683046  
0.0  89.887642  0.0  0.301227  -16.743848  -96.3972  17.160236  -16.050972  1.49204  0.675222  4.848151  25.492784  5.047423  2.205088  2.56472  -3.456696  8.326952  -6.089698  -1.280449  4.641509  16.943777  3.209801  0.711845  -0.137184  1.363345  0.029719  0.962481  3.727071  0.026953  2.631559  3.727071  0.026953  2.631559  -6.330401  19.24374  3.33553  141.264307  37.585698  -172.21358  -7.046514  -3.546948  35.45472  89.27101  -7.370728  2.372835  -5.569776  1.177489  20.508535  57.541549  27.622628  21.237089  13.681253  8.087561  -54.27906  102.064911  1.415725  -26.066349  -9.528961  -0.403868  -0.955015  -7.147342  -0.288092  -0.722765  
0.0  89.887642  0.0  0.378097  -16.894426  -96.525546  17.319471  -16.073336  1.431264  0.703396  4.996255  25.854186  5.002893  2.182082  2.523327  -3.733659  8.51642  -6.308997  -1.106195  4.532028  17.368869  3.299777  0.67845  -0.076736  1.377257  0.046416  0.97671  3.765763  0.071202  2.671389  3.765764  0.071202  2.671389  -6.341486  19.1378  3.409924  141.80959  37.632539  -172.018149  -7.198755  -3.392024  35.601311  89.447227  -7.24846  2.361234  -5.415179  1.060522  20.508618  57.739616  27.759028  21.343055  13.679193  7.971762  -54.510373  102.096068  1.076342  -25.830802  -9.444409  -0.396218  -0.940956  -7.083908  -0.282701  -0.71204  
0.0  89.887642  0.0  0.472488  -16.875887  -96.584402  17.156836  -16.04365  1.174802  0.570495  5.201071  26.177062  5.219333  2.225203  2.663772  -4.429772  8.803258  -6.795618  -1.712958  4.543852  17.723078  4.243878  0.766242  0.180403  1.39868  0.060341  0.988828  3.824886  0.107675  2.705315  3.824886  0.107675  2.705315  -6.607434  19.0563  3.38094  142.327494  37.715681  -171.810198  -7.360525  -3.218341  35.706841  89.650706  -7.048253  2.433126  -5.672646  0.953755  20.375113  57.964788  27.890354  21.459074  13.945364  7.947236  -54.695204  102.206372  0.69772  -25.55851  -9.474869  -0.371564  -0.950922  -7.106725  -0.264005  -0.719155  
0.0  89.887642  0.0  0.642073  -16.907054  -96.63922  17.168648  -15.964716  0.937924  0.707771  5.420421  26.751342  5.208831  2.179387  2.650368  -4.875225  9.183543  -7.347988  -1.594224  4.393388  18.558389  4.425786  0.817265  0.230317  1.396888  0.084989  0.974816  3.820975  0.175893  2.668453  3.820976  0.175893  2.668452  -6.645871  18.96299  3.491557  142.928215  37.835656  -171.517428  -7.417585  -3.050741  35.802264  89.910906  -6.750896  2.604618  -5.427995  0.880553  20.521624  58.163192  28.05316  21.546374  14.000299  7.890045  -54.850149  102.298859  0.350422  -25.233659  -9.399622  -0.317487  -0.872961  -7.050169  -0.224751  -0.659788  
0.0  89.887642  0.0  0.838461  -16.506525  -96.479502  16.595434  -15.699889  0.357026  0.78625  5.61568  27.348371  5.290123  2.156155  2.730417  -5.74  9.60843  -8.287734  -1.615252  4.309591  19.687097  4.563027  0.887622  0.20664  1.351612  0.093971  0.928435  3.697489  0.204856  2.542131  3.697489  0.204856  2.542131  -6.753513  19.022968  3.650727  143.415893  38.054671  -171.129719  -7.412873  -2.917885  35.871648  90.235674  -6.36601  2.912044  -5.477759  0.943253  20.593056  57.582472  28.197682  21.129022  14.957688  8.103095  -54.728599  102.421896  0.05902  -24.977214  -9.405828  -0.178441  -0.80275  -7.054614  -0.121509  -0.604978  
0.0  89.887642  0.0  1.181269  -16.327653  -96.503113  16.205127  -15.35659  -0.074592  1.030631  5.833007  28.196306  5.32341  2.116886  2.779639  -6.218976  10.065643  -9.157121  -1.655927  4.360407  21.014652  4.92038  1.003883  0.176936  1.316401  0.114987  0.884612  3.601922  0.266014  2.423445  3.601922  0.266014  2.423445  -6.702591  19.138839  3.940894  143.921755  38.355843  -170.700125  -7.294589  -2.892464  35.972747  90.553394  -5.912823  3.390089  -5.069895  1.071415  20.94035  57.768996  28.388914  21.18268  15.036935  8.090919  -54.761893  102.5303  -0.146253  -24.765055  -9.336788  -6.9E-4  -0.675825  -7.002602  0.009811  -0.507019  
0.0  89.887642  0.0  1.59794  -15.831447  -96.465054  15.378516  -14.823691  -0.679219  1.19122  6.041967  29.11377  5.205826  2.023878  2.752054  -7.017225  10.566499  -10.249525  -2.913037  4.502549  22.219721  6.093797  1.261511  0.326843  1.244545  0.146747  0.837007  3.406482  0.357882  2.294749  3.406481  0.357882  2.294749  -6.727165  19.297513  4.165409  144.21433  38.709017  -170.295528  -7.135888  -3.039723  36.10466  90.854274  -5.420614  4.04853  -4.901207  1.237659  21.218097  56.903477  28.55768  20.498756  16.303919  8.542506  -54.4335  102.941908  0.136008  -24.957771  -9.289111  0.172764  -0.579154  -6.966671  0.138415  -0.431857  
0.0  89.887642  0.0  2.17991  -15.279367  -96.480684  14.593066  -14.053772  -1.175935  1.110723  6.220054  29.985093  5.31482  2.045272  2.884045  -7.870206  11.157349  -11.360697  -2.447928  4.559672  23.820718  6.21179  1.345662  0.264669  1.196666  0.221743  0.826839  3.278183  0.564958  2.270465  3.278182  0.564958  2.270465  -7.077024  19.339004  4.171136  144.441997  39.094728  -169.838351  -6.911503  -3.396268  36.311609  91.172559  -4.840989  4.887497  -4.54704  1.292837  21.478883  57.039299  28.744228  20.437793  16.404781  8.707128  -54.356754  102.946984  -0.004246  -24.564398  -9.360042  0.255988  -0.614625  -7.019771  0.201462  -0.457174  
0.0  89.887642  0.0  2.833675  -14.431655  -96.397531  13.667764  -13.022883  -1.74551  0.71219  6.343797  30.743801  5.307067  2.040959  2.916321  -9.2308  11.780112  -12.645363  -1.802141  4.551634  25.464509  6.374588  1.426845  0.156899  1.130273  0.312713  0.818919  3.099816  0.816178  2.25259  3.099816  0.816178  2.25259  -7.478576  19.423464  4.184825  144.158158  39.617162  -169.31045  -6.807767  -3.971116  36.453514  91.524124  -4.178675  5.815658  -5.592969  1.329952  21.103209  58.709728  28.691402  21.115604  16.619926  8.675827  -54.597583  103.562572  -0.0355  -24.685042  -9.502324  0.303314  -0.723461  -7.126379  0.238805  -0.538032  
0.0  89.887642  0.0  3.62805  -13.265617  -96.288221  12.412263  -11.625164  -2.443419  0.376263  6.44918  31.61428  5.457155  2.051068  3.060547  -10.740669  12.608692  -14.078866  -1.209257  4.564172  27.209123  6.648808  1.566331  0.002333  1.022383  0.430772  0.817619  2.809036  1.142516  2.252839  2.809036  1.142516  2.252839  -8.113996  19.499985  4.081449  144.073864  40.168115  -168.722092  -6.63952  -4.631294  36.770498  91.9575  -3.468259  6.789238  -5.165514  1.409717  21.370536  58.733603  28.818759  20.902347  16.638929  8.754522  -54.541906  103.462607  -0.322974  -24.368347  -9.659706  0.333115  -0.884734  -7.244295  0.263901  -0.658478  
0.0  89.887642  0.0  4.453125  -11.629779  -96.070344  10.377292  -10.051903  -3.509697  0.551849  6.481338  32.775568  5.593926  2.106094  3.293251  -12.377579  13.462376  -15.433599  -0.959722  4.714168  28.796191  6.950057  1.697632  -0.162655  0.852427  0.550473  0.815637  2.348645  1.475503  2.248892  2.348645  1.475503  2.248892  -7.651026  19.921833  4.296114  142.270739  41.144211  -168.375581  -6.833722  -5.284784  36.939887  92.485315  -2.769551  7.710167  -4.690043  1.587502  21.612581  58.723414  28.859358  20.61527  16.671917  8.725938  -54.556999  103.166567  -0.69967  -24.051624  -9.837324  0.370696  -1.091064  -7.377334  0.295679  -0.812577  
0.0  89.887642  0.0  5.181466  -9.624251  -95.701161  8.091172  -8.840318  -4.953481  0.544561  6.895215  33.930114  5.740132  2.171824  3.462793  -14.22234  14.198981  -16.636686  -0.479984  4.852559  30.02744  7.047424  1.789963  -0.233326  0.646453  0.641422  0.804836  1.788516  1.73138  2.217372  1.788516  1.73138  2.217372  -8.538218  20.283755  3.923486  141.712833  41.947796  -167.909843  -7.017165  -5.814352  37.262173  93.091882  -2.066402  8.501149  -4.109879  1.825573  21.885596  58.552377  28.87519  20.275807  16.618793  8.55091  -54.682739  102.607474  -1.130086  -23.780333  -10.104938  0.458165  -1.330688  -7.577709  0.36575  -0.990756  
